<svg width="24" height="21" viewBox="0 0 24 21" fill="none" xmlns="http://www.w3.org/2000/svg">
<path d="M13.78 13.98L12.01 14.88C11.94 14.91 11.86 14.91 11.79 14.87C11.73 14.83 11.69 14.76 11.69 14.68V1.95C11.68 1.43 12.09 1.01 12.61 1H21.78C22.3 1.01 22.71 1.44 22.7 1.95V14.68C22.7 14.76 22.66 14.83 22.6 14.87C22.54 14.91 22.45 14.91 22.38 14.88L20.61 13.98C20.54 13.94 20.46 13.95 20.39 13.99L18.97 14.96C18.9 15.01 18.8 15.01 18.73 14.96L17.32 14.01C17.25 13.96 17.15 13.96 17.08 14.01L15.67 14.96C15.6 15.01 15.5 15.01 15.43 14.96L14.01 14C13.95 13.95 13.86 13.95 13.79 13.98H13.78Z" stroke="#FF0202" stroke-linecap="round" stroke-linejoin="round"/>
<path d="M13.83 6.55999V9.47C13.83 10.54 14.7 11.41 15.77 11.41H18.68C19.75 11.41 20.62 10.54 20.62 9.47V6.55999C20.62 5.48999 19.75 4.62 18.68 4.62H15.77C14.7 4.62 13.83 5.48999 13.83 6.55999Z" stroke="#FF0202" stroke-linecap="round" stroke-linejoin="round"/>
<path d="M15.78 5.64001C15.78 5.87001 15.97 6.06001 16.2 6.06001C16.43 6.06001 16.62 5.87001 16.62 5.64001H15.78ZM16.62 3.12001C16.62 2.89001 16.43 2.70001 16.2 2.70001C15.97 2.70001 15.78 2.89001 15.78 3.12001H16.62ZM16.62 5.64001V3.12001H15.78V5.64001H16.62Z" fill="#FF0202"/>
<path d="M17.76 5.64001C17.76 5.87001 17.95 6.06001 18.18 6.06001C18.41 6.06001 18.6 5.87001 18.6 5.64001H17.76Z" fill="#FF0202"/>
<path d="M18.6 3.12001C18.6 2.89001 18.41 2.70001 18.18 2.70001C17.95 2.70001 17.76 2.89001 17.76 3.12001H18.6Z" fill="#FF0202"/>
<path d="M18.6 3.12H17.76V5.64H18.6V3.12Z" fill="#FF0202"/>
<path d="M15 13.19C15 17.06 11.87 20.19 8 20.19C4.13 20.19 1 17.06 1 13.19C1 9.32 4.13 6.19 8 6.19C9.86 6.19 11.64 6.93 12.95 8.24C14.26 9.55 15 11.33 15 13.19Z" fill="url(#paint0_linear_1809_55175)" stroke="#FF0202" stroke-linecap="round" stroke-linejoin="round"/>
<path d="M11 16.19C10.82 15.72 10.52 15.3 10.14 14.97C8.91001 13.94 7.13001 13.93 5.89001 14.94C5.50001 15.26 5.19001 15.68 5.01001 16.15" stroke="#DB0C0C" stroke-linecap="round" stroke-linejoin="round"/>
<path d="M5 11.19V10.19" stroke="#FF0202" stroke-linecap="round"/>
<path d="M11 11.19V10.19" stroke="#FF0202" stroke-linecap="round"/>
<path d="M21.58 9.82998C21.58 11.2 20.47 12.31 19.1 12.31C17.73 12.31 16.62 11.2 16.62 9.82998C16.62 8.45998 17.73 7.34998 19.1 7.34998C19.76 7.34998 20.39 7.60998 20.85 8.07998C21.31 8.53998 21.58 9.16998 21.58 9.82998Z" fill="white" stroke="#FF0202" stroke-width="0.75" stroke-linecap="round" stroke-linejoin="round"/>
<path d="M19.06 9.12C19.06 8.95 18.92 8.81 18.75 8.81C18.58 8.81 18.44 8.95 18.44 9.12H19.06Z" fill="#FF0202"/>
<path d="M18.75 10.18H18.44C18.44 10.35 18.58 10.49 18.75 10.49V10.18Z" fill="#FF0202"/>
<path d="M19.81 10.49C19.98 10.49 20.12 10.35 20.12 10.18C20.12 10.01 19.98 9.87 19.81 9.87V10.49Z" fill="#FF0202"/>
<path d="M19.06 9.12H18.44V10.18H19.06V9.12Z" fill="#FF0202"/>
<path d="M19.81 9.87H18.75V10.49H19.81V9.87Z" fill="#FF0202"/>
<defs>
<linearGradient id="paint0_linear_1809_55175" x1="8" y1="6.19" x2="8" y2="20.19" gradientUnits="userSpaceOnUse">
<stop stop-color="#FFFAFA"/>
<stop offset="1" stop-color="#FF6F6F"/>
</linearGradient>
</defs>
</svg>
